<svg id="svg" xmlns="http://www.w3.org/2000/svg" xmlns:xlink="http://www.w3.org/1999/xlink" width="400" height="417.3374613003096" viewBox="0, 0, 400,417.3374613003096"><g id="svgg"><path id="path0" d="M230.191 26.233 C 217.920 30.800,217.956 47.493,230.247 51.680 C 237.394 54.116,245.670 50.536,241.538 46.796 C 240.558 45.910,240.109 45.851,238.972 46.460 C 234.746 48.721,227.977 45.682,226.575 40.893 C 224.249 32.949,234.416 27.688,240.706 33.580 C 241.887 34.686,242.326 34.773,243.665 34.163 C 250.457 31.068,237.574 23.485,230.191 26.233 M183.591 31.215 C 174.135 35.417,177.056 49.541,187.380 49.533 C 197.565 49.525,200.721 36.107,191.600 31.588 C 188.704 30.153,186.238 30.038,183.591 31.215 M164.706 33.513 C 157.126 36.536,158.912 45.201,167.115 45.201 C 169.996 45.201,170.875 46.077,169.001 47.080 C 168.015 47.608,167.244 47.597,165.892 47.037 C 164.396 46.417,163.834 46.463,162.542 47.309 C 158.356 50.052,165.141 53.816,170.550 51.750 C 177.650 49.039,176.404 40.867,168.890 40.867 C 167.740 40.867,166.279 40.486,165.641 40.020 C 163.696 38.597,166.503 37.445,169.380 38.485 C 171.336 39.192,171.660 39.141,172.869 37.933 C 175.670 35.132,169.298 31.682,164.706 33.513 M190.867 37.247 C 194.614 41.675,188.293 47.173,184.182 43.062 C 182.164 41.044,182.266 39.311,184.536 37.041 C 186.668 34.908,188.951 34.983,190.867 37.247 M146.955 37.809 C 139.243 40.130,140.550 48.884,148.706 49.533 C 153.322 49.900,153.694 51.051,149.230 51.157 C 142.931 51.307,142.392 54.966,148.422 56.649 C 152.225 57.712,157.895 53.846,157.895 50.191 C 157.895 46.835,155.879 45.279,151.265 45.074 C 146.935 44.882,145.669 43.965,148.006 42.715 C 149.019 42.172,149.773 42.182,151.156 42.754 C 153.098 43.559,155.418 42.319,155.418 40.476 C 155.418 38.401,150.323 36.795,146.955 37.809 M276.760 40.402 C 274.647 45.077,274.482 45.239,272.571 44.512 C 271.251 44.010,270.782 44.099,270.142 44.973 C 268.938 46.621,269.163 48.774,270.588 49.226 C 272.250 49.753,272.177 50.294,269.667 56.044 C 267.179 61.742,267.036 62.870,268.690 63.755 C 270.821 64.896,271.234 64.487,274.193 58.311 L 277.109 52.225 278.903 52.823 C 281.969 53.845,283.817 49.722,280.960 48.235 C 280.193 47.836,279.493 47.452,279.404 47.380 C 279.314 47.308,279.941 45.666,280.797 43.731 C 282.748 39.320,282.743 38.508,280.765 37.756 C 278.400 36.856,278.349 36.890,276.760 40.402 M249.223 41.641 C 243.215 47.659,246.587 57.575,254.644 57.583 C 256.161 57.584,257.408 58.028,258.242 58.862 C 261.194 61.814,265.140 55.836,265.223 48.285 C 265.316 39.831,255.216 35.637,249.223 41.641 M127.171 44.911 C 116.551 49.568,122.281 65.902,133.541 63.067 C 136.485 62.326,140.557 58.453,140.557 56.394 C 140.557 54.308,136.977 54.002,135.370 55.951 C 133.599 58.100,130.965 59.036,129.259 58.122 C 128.056 57.479,128.276 57.277,131.931 55.663 C 139.828 52.176,140.591 51.203,138.131 47.750 C 135.840 44.531,130.934 43.261,127.171 44.911 M258.824 45.201 C 261.622 48.000,259.693 52.632,255.728 52.632 C 253.943 52.632,253.072 52.276,252.357 51.255 C 250.153 48.108,252.069 43.963,255.728 43.963 C 256.760 43.963,258.136 44.513,258.824 45.201 M133.116 49.516 C 133.822 49.962,133.210 50.460,130.467 51.673 C 126.227 53.548,126.250 53.545,126.739 52.167 C 127.767 49.269,130.758 48.025,133.116 49.516 M110.279 53.726 C 105.708 56.040,105.363 56.769,107.420 59.777 C 108.343 61.126,110.178 64.367,111.498 66.981 C 114.257 72.443,114.742 72.885,116.777 71.795 C 118.789 70.718,118.676 69.936,115.746 64.628 C 112.845 59.372,112.742 57.377,115.357 57.077 C 117.655 56.813,118.902 54.008,117.256 52.805 C 115.645 51.627,113.994 51.845,110.279 53.726 M94.994 62.800 C 88.529 65.614,87.808 72.058,93.082 79.876 C 101.698 92.649,101.966 92.910,104.355 90.844 L 105.940 89.474 103.103 85.452 L 100.266 81.430 102.610 80.420 C 105.713 79.083,107.721 76.816,108.387 73.899 C 110.174 66.064,102.364 59.591,94.994 62.800 M299.714 63.113 C 298.723 64.965,299.329 65.713,305.145 69.818 C 361.971 109.925,390.797 180.663,378.254 249.226 C 364.777 322.898,305.939 381.727,232.817 394.641 C 220.312 396.849,216.027 397.188,200.619 397.188 C 86.095 397.188,1.129 292.994,23.849 180.413 C 27.437 162.634,34.568 143.710,43.622 127.941 C 47.962 120.382,48.390 118.467,45.939 117.566 C 41.378 115.890,26.050 148.408,20.217 172.136 C -8.672 289.654,80.084 402.898,200.929 402.707 C 324.872 402.511,413.751 283.493,378.916 164.365 C 367.752 126.186,343.560 91.527,311.455 67.717 C 303.226 61.613,300.987 60.735,299.714 63.113 M101.774 68.156 C 103.838 69.780,103.964 72.700,102.059 74.728 C 99.369 77.591,94.737 75.520,94.737 71.454 C 94.737 69.293,97.026 66.873,99.071 66.873 C 99.660 66.873,100.877 67.451,101.774 68.156 M77.363 76.596 C 70.190 82.632,75.602 91.056,83.822 86.651 C 85.130 85.949,86.370 85.545,86.577 85.751 C 87.298 86.472,85.625 88.240,83.578 88.921 C 79.151 90.393,80.224 94.638,84.809 93.789 C 90.699 92.699,94.068 86.382,90.791 82.572 C 88.996 80.485,86.223 80.379,82.544 82.255 C 80.692 83.200,79.878 83.345,79.356 82.823 C 78.303 81.770,80.301 79.876,82.464 79.876 C 84.320 79.876,85.868 77.526,85.184 75.745 C 84.585 74.184,79.583 74.728,77.363 76.596 M56.577 86.447 L 51.114 92.399 55.754 96.818 C 64.025 104.697,69.778 109.598,70.755 109.598 C 71.870 109.598,81.734 98.826,81.734 97.609 C 81.734 95.596,78.485 94.027,77.585 95.605 C 77.313 96.083,75.588 98.058,73.752 99.995 L 70.413 103.516 68.548 101.651 L 66.683 99.786 69.278 96.838 C 72.085 93.650,72.254 92.587,70.172 91.207 C 68.909 90.370,68.645 90.508,65.829 93.476 L 62.830 96.636 60.545 94.293 L 58.260 91.950 61.947 87.735 C 65.983 83.122,66.083 82.890,64.662 81.468 C 63.009 79.816,62.214 80.306,56.577 86.447 M259.157 96.191 C 257.617 97.317,258.101 102.650,260.314 108.956 C 262.472 115.102,262.481 115.108,266.616 112.632 C 277.848 105.909,280.483 97.714,270.599 100.247 L 267.564 101.025 264.848 98.190 C 261.971 95.189,260.996 94.846,259.157 96.191 M171.303 97.108 C 169.858 98.705,170.038 101.312,171.867 105.263 C 173.682 109.184,179.496 118.266,180.191 118.266 C 180.974 118.266,188.104 110.655,190.420 107.347 C 196.362 98.859,192.174 94.216,183.740 99.939 L 181.543 101.430 179.847 99.660 C 176.612 96.283,173.020 95.210,171.303 97.108 M220.651 106.872 C 219.010 109.386,219.149 123.921,220.879 130.715 L 222.078 135.424 219.079 139.384 C 217.430 141.562,215.319 145.350,214.387 147.802 C 212.963 151.551,212.496 152.218,211.455 151.994 C 181.720 145.603,145.867 157.739,154.184 171.381 C 155.345 173.285,155.355 173.435,154.337 173.789 C 138.572 179.271,128.235 188.234,128.187 196.463 L 128.173 198.808 124.469 196.292 C 104.277 182.580,84.560 182.378,68.736 195.721 C 42.565 217.789,47.432 255.315,79.251 276.792 C 93.721 286.560,115.465 285.807,129.569 275.052 C 151.516 258.314,130.955 219.258,106.158 230.582 C 90.009 237.956,91.046 263.158,107.499 263.158 C 114.825 263.158,116.065 258.124,108.872 257.585 C 98.534 256.810,96.179 244.087,105.124 237.340 C 123.166 223.733,144.141 254.085,127.471 269.677 C 117.834 278.691,99.682 281.085,86.997 275.015 C 62.830 263.451,50.715 234.991,61.078 214.125 C 72.889 190.342,96.766 184.626,120.052 200.007 C 129.767 206.424,130.112 206.884,133.995 218.660 C 139.773 236.181,148.761 255.029,158.230 269.482 C 162.991 276.747,162.866 275.926,159.288 276.458 C 136.599 279.832,116.336 288.663,112.438 296.876 C 100.947 321.092,185.357 338.310,264.087 327.809 C 332.651 318.664,341.492 290.033,279.567 277.680 C 274.799 276.729,270.803 275.880,270.687 275.794 C 270.572 275.708,272.875 271.809,275.806 267.129 C 287.316 248.756,295.603 230.050,301.977 208.050 C 305.092 197.299,304.883 192.439,301.122 188.140 C 300.326 187.231,300.467 186.801,302.383 184.292 C 307.839 177.144,309.550 163.722,306.236 154.064 L 305.240 151.161 308.701 145.852 C 315.901 134.807,318.785 125.607,315.871 122.980 C 313.810 121.121,305.365 121.888,293.096 125.047 L 283.097 127.622 279.389 126.062 C 272.051 122.973,266.999 121.902,258.698 121.675 L 250.833 121.460 243.528 116.173 C 229.160 105.775,223.001 103.271,220.651 106.872 M230.673 122.647 C 231.853 124.988,232.817 127.011,232.817 127.141 C 232.817 127.414,226.163 131.889,225.757 131.889 C 224.795 131.889,222.658 114.844,223.300 112.287 C 223.748 110.501,226.515 114.389,230.673 122.647 M237.152 116.912 C 246.142 123.060,245.866 122.629,241.659 123.942 C 236.814 125.455,236.760 125.442,235.369 122.446 C 234.698 120.998,233.142 118.050,231.913 115.894 C 230.684 113.738,230.036 112.180,230.474 112.432 C 230.911 112.684,233.916 114.700,237.152 116.912 M87.638 118.100 C 86.775 119.371,86.068 120.785,86.068 121.241 C 86.068 121.885,85.308 121.976,82.663 121.645 C 70.908 120.176,75.652 128.056,90.179 134.131 L 92.123 134.944 92.883 132.023 C 96.048 119.847,92.626 110.761,87.638 118.100 M269.969 127.272 C 291.637 132.935,306.356 151.820,303.416 170.188 C 300.633 187.577,286.682 193.441,259.001 188.858 C 230.192 184.088,216.851 175.568,216.195 161.519 C 215.090 137.869,242.855 120.186,269.969 127.272 M304.334 127.927 C 303.313 128.792,300.781 130.989,298.709 132.808 L 294.941 136.117 291.764 133.551 C 288.034 130.538,287.920 130.655,296.602 128.590 C 305.539 126.465,305.534 126.466,305.882 126.407 C 306.053 126.378,305.356 127.063,304.334 127.927 M311.118 132.605 C 309.468 136.555,308.495 138.368,305.091 143.833 L 303.244 146.799 301.689 144.452 C 300.833 143.161,299.593 141.505,298.932 140.772 L 297.730 139.439 300.638 136.747 C 305.116 132.602,312.314 127.344,312.548 128.047 C 312.664 128.393,312.020 130.444,311.118 132.605 M238.397 143.955 C 234.296 148.896,245.627 154.646,251.054 150.377 C 254.625 147.568,251.960 145.128,247.513 147.133 L 245.022 148.257 242.773 145.645 C 240.344 142.825,239.579 142.530,238.397 143.955 M128.327 146.769 C 126.930 147.330,123.220 152.530,123.220 153.926 C 123.220 154.467,122.590 154.522,120.898 154.129 C 112.820 152.253,108.850 156.227,113.952 161.081 C 116.413 163.422,128.148 169.659,130.092 169.659 C 131.497 169.659,133.318 160.984,133.384 153.971 C 133.449 147.232,132.068 145.265,128.327 146.769 M271.001 149.639 C 269.315 151.325,271.995 156.273,275.357 157.677 C 279.530 159.421,286.495 156.053,284.896 153.065 C 284.024 151.436,283.053 151.358,280.666 152.729 C 278.314 154.079,276.131 153.473,274.797 151.101 C 273.818 149.361,271.985 148.655,271.001 149.639 M208.824 155.803 L 211.765 156.198 211.765 160.368 L 211.765 164.538 203.870 164.966 C 189.918 165.722,169.422 168.752,163.803 170.888 C 158.658 172.844,155.300 168.387,158.792 164.237 C 165.083 156.761,187.642 152.958,208.824 155.803 M249.948 157.069 C 249.087 157.930,249.595 160.082,251.210 162.412 L 252.885 164.829 251.675 167.082 C 250.239 169.754,248.753 170.187,246.033 168.722 C 242.578 166.861,240.675 168.898,243.452 171.485 C 245.016 172.942,248.193 173.674,250.742 173.164 C 251.935 172.926,252.782 173.120,253.306 173.751 C 255.387 176.258,260.447 177.316,261.913 175.550 C 263.105 174.113,262.195 172.755,260.041 172.755 C 255.160 172.755,253.734 165.794,258.324 164.368 C 263.471 162.769,264.516 159.689,260.526 157.878 C 257.948 156.708,250.852 156.165,249.948 157.069 M214.498 171.905 C 215.379 173.480,216.099 174.970,216.099 175.215 C 216.099 175.460,212.825 175.838,208.824 176.055 C 171.554 178.072,142.533 195.598,150.524 211.262 C 152.265 214.675,151.972 214.690,145.867 211.497 C 139.096 207.955,135.457 205.457,134.139 203.445 C 124.913 189.365,153.177 173.795,194.349 170.278 C 213.856 168.611,212.601 168.510,214.498 171.905 M224.450 182.064 C 241.039 193.085,280.349 198.142,294.110 191.026 C 296.587 189.745,297.375 190.045,298.664 192.761 C 305.112 206.348,280.673 219.345,240.248 223.829 C 226.922 225.307,216.637 225.121,215.046 223.375 C 208.751 216.464,212.961 211.835,226.739 210.519 C 250.271 208.270,271.517 203.573,271.517 200.619 C 271.517 198.541,269.632 198.610,258.824 201.087 C 248.442 203.466,241.287 204.685,232.508 205.571 C 217.051 207.130,212.682 208.487,209.717 212.651 C 207.995 215.070,207.861 220.657,209.467 223.108 L 210.555 224.768 205.963 224.768 C 187.796 224.768,163.613 219.887,157.880 215.063 C 140.388 200.344,173.382 181.008,218.266 179.675 C 220.193 179.618,221.566 180.148,224.450 182.064 M145.328 216.631 C 181.380 234.785,258.169 233.705,291.033 214.580 C 296.661 211.305,296.423 211.069,294.215 217.729 C 285.313 244.588,268.463 273.753,251.171 292.232 C 247.624 296.023,247.277 296.107,230.341 297.261 C 216.826 298.183,193.722 297.336,185.622 295.622 C 182.302 294.920,166.734 275.055,157.963 260.328 C 149.805 246.632,141.076 227.262,137.241 214.350 L 136.285 211.128 138.885 212.912 C 140.316 213.893,143.215 215.567,145.328 216.631 M169.994 285.810 C 172.592 289.073,174.624 291.818,174.510 291.910 C 174.397 292.002,172.946 292.410,171.286 292.816 C 159.018 295.819,156.136 303.052,165.337 307.746 C 180.567 315.516,233.348 317.083,259.174 310.531 C 276.220 306.207,277.648 297.616,262.075 293.078 C 257.387 291.712,257.331 292.460,262.622 285.765 C 267.617 279.445,266.346 279.802,276.780 281.787 C 342.226 294.235,322.300 319.295,242.105 325.396 C 170.977 330.807,98.115 312.498,120.189 294.759 C 127.040 289.254,144.580 283.393,163.467 280.298 C 164.319 280.159,165.073 280.007,165.143 279.960 C 165.213 279.914,167.396 282.546,169.994 285.810 " stroke="none" fill="#000000" fill-rule="evenodd"></path></g></svg>